# Blender v2.80 (sub 75) OBJ File: 'player.blend'
# www.blender.org
mtllib player.mtl
o Cube
v 1.000000 -1.000000 -0.500000
v 1.000000 -1.000000 0.500000
v -1.000000 -1.000000 0.500000
v -1.000000 -1.000000 -0.500000
v 1.000000 1.000000 -0.500000
v 0.999999 1.000000 0.500000
v -1.000000 1.000000 0.500000
v -1.000000 1.000000 -0.500000
v 0.000000 -1.000000 0.500000
v 0.000000 -1.000000 -0.500000
v 1.500000 -3.000000 -0.500000
v 1.500000 -3.000000 0.500000
v 0.500000 -3.000000 0.500000
v 0.500000 -3.000000 -0.500000
v -1.500000 -3.000000 0.500000
v -1.500000 -3.000000 -0.500000
v -0.500000 -3.000000 0.500000
v -0.500000 -3.000000 -0.500000
v 1.000000 0.250000 0.500000
v 1.000000 0.250000 -0.500000
v -1.000000 0.250000 -0.500000
v -1.000000 0.250000 0.500000
v 1.875000 1.000000 -0.500000
v 1.875000 0.250000 -0.500000
v -1.875000 1.000000 -0.500000
v -1.875000 0.250000 -0.500000
v 0.333334 1.000000 -0.500000
v -0.333333 1.000000 -0.500000
v 0.333333 1.000000 0.500000
v -0.333334 1.000000 0.500000
v 0.333334 2.000000 -0.500000
v -0.333333 2.000000 -0.500000
v 0.333333 2.000000 0.500000
v -0.333334 2.000000 0.500000
v 1.312500 1.000000 -0.500000
v 1.312500 0.250000 -0.500000
v -1.312500 1.000000 -0.500000
v -1.312500 0.250000 -0.500000
v 0.990571 0.808984 -2.000000
v 0.990571 0.441017 -2.000000
v 0.714596 0.808984 -2.000000
v 0.714596 0.441017 -2.000000
v 0.444305 0.808984 -2.000000
v 0.444305 0.441017 -2.000000
v 0.720280 0.808984 -2.000000
v 0.720280 0.441017 -2.000000
vn -0.9701 0.2425 -0.0000
vn -1.0000 0.0000 -0.0000
vn -0.0000 -0.0000 1.0000
vn 0.0000 -0.9920 -0.1263
vn 0.0000 0.0000 -1.0000
vn -0.9701 -0.2425 -0.0000
vn 0.0000 -1.0000 -0.0000
vn 0.9701 0.2425 0.0000
vn 0.9701 -0.2425 0.0000
vn 1.0000 0.0000 0.0000
vn 0.7526 -0.0000 0.6585
vn -0.9289 -0.0000 0.3703
vn 0.0000 1.0000 0.0000
vn -0.7526 -0.0000 0.6585
vn 0.0000 0.9920 -0.1263
vn 0.8614 -0.0000 -0.5079
vn 0.5938 0.0000 0.8046
vn -0.5431 0.0000 -0.8397
usemtl Material
s off
f 3//1 4//1 16//1 15//1
f 28//2 30//2 34//2 32//2
f 3//2 22//2 21//2 4//2
f 2//3 19//3 6//3 29//3 30//3 7//3 22//3 3//3 9//3
f 38//4 26//4 44//4 46//4
f 5//5 20//5 1//5 10//5 4//5 21//5 8//5 28//5 27//5
f 9//6 10//6 14//6 13//6
f 11//7 12//7 13//7 14//7
f 2//3 9//3 13//3 12//3
f 10//5 1//5 11//5 14//5
f 1//8 2//8 12//8 11//8
f 16//7 18//7 17//7 15//7
f 9//3 3//3 15//3 17//3
f 10//9 9//9 17//9 18//9
f 4//5 10//5 18//5 16//5
f 1//10 20//10 19//10 2//10
f 6//11 19//11 24//11 23//11
f 20//7 24//7 19//7
f 36//12 35//12 41//12 42//12
f 22//7 26//7 21//7
f 6//13 23//13 5//13
f 7//14 25//14 26//14 22//14
f 8//13 25//13 7//13
f 8//13 7//13 30//13 28//13
f 6//13 5//13 27//13 29//13
f 32//13 34//13 33//13 31//13
f 30//3 29//3 33//3 34//3
f 27//5 28//5 32//5 31//5
f 29//10 27//10 31//10 33//10
f 5//5 35//5 36//5 20//5
f 8//5 21//5 38//5 37//5
f 39//5 40//5 42//5 41//5
f 35//15 23//15 39//15 41//15
f 24//4 36//4 42//4 40//4
f 23//16 24//16 40//16 39//16
f 43//5 45//5 46//5 44//5
f 25//15 37//15 45//15 43//15
f 37//17 38//17 46//17 45//17
f 26//18 25//18 43//18 44//18
