# Blender v2.80 (sub 75) OBJ File: 'field.blend'
# www.blender.org
mtllib field_surface.mtl
o Surface_Plane
v -85.169830 6.120795 85.169830
v 67.984657 12.524969 -8.893332
v -132.145370 0.000000 -69.792358
v 55.693619 7.225652 -107.236572
v 177.288513 0.000000 85.169830
v 177.288513 0.000000 -85.169830
v -75.934288 6.120794 146.845703
v 67.281151 -2.029197 146.845703
v 144.731216 0.000000 146.845703
v -85.169830 29.487453 85.169830
v -132.145370 23.366659 -69.792358
v 58.689800 23.633509 -109.743202
v 177.288513 17.255255 -128.137314
v -132.145370 23.366659 -112.759850
v 55.693619 30.592312 -150.204056
v -118.923004 34.989624 71.075920
v -165.898544 28.868828 -83.886269
v -165.898544 28.868828 -126.853767
v -14.957542 14.611835 49.234749
v -14.738105 6.673223 -11.033364
v -121.445099 6.120797 127.613548
v -121.445099 29.487457 127.613548
v -139.997269 6.120800 215.168716
v -139.997269 29.487461 215.168716
v -56.640182 6.120794 220.797562
v 86.575256 -2.029197 220.797562
v 229.733032 0.000000 111.238617
v 197.175720 0.000000 172.914490
v -38.225872 0.372145 -88.514465
vt 0.000000 0.000000
vt 0.000000 0.000000
vt 0.000000 0.000000
vt 0.000000 0.000000
vt 0.000000 0.000000
vt 0.000000 0.000000
vt 0.000000 0.000000
vt 0.000000 0.000000
vt 0.000000 0.000000
vt 0.000000 0.000000
vt 0.000000 0.000000
vt 0.000000 0.000000
vt 0.000000 0.000000
vt 0.000000 0.000000
vt 0.000000 0.000000
vt 0.000000 0.000000
vt 0.000000 0.000000
vt 0.000000 0.000000
vt 0.000000 0.000000
vt 0.000000 0.000000
vt 0.000000 0.000000
vt 0.000000 0.000000
vt 0.000000 0.000000
vt 0.000000 0.000000
vt 0.000000 0.000000
vt 0.000000 0.000000
vt 0.000000 0.000000
vt 0.000000 0.000000
vt 0.000000 0.000000
vn -0.0436 0.9987 -0.0262
vn -0.1839 0.9744 -0.1290
vn 0.0705 0.9956 -0.0625
vn 0.1138 0.9935 0.0000
vn 0.0566 0.9940 0.0932
vn -0.1116 0.9936 0.0167
vn 0.0785 0.9961 0.0414
vn -0.0261 0.9953 0.0929
vn 0.1989 0.0432 0.9791
vn 0.9570 0.0000 -0.2901
vn -0.1654 0.1784 0.9700
vn 0.1619 0.9745 0.1556
vn -0.0027 0.9965 0.0832
vn 0.0341 0.9274 0.3724
vn 0.1609 0.9870 0.0000
vn 0.2003 0.9747 -0.0992
vn 0.0253 0.9503 0.3104
vn -0.0116 0.9986 -0.0524
vn 0.1490 0.9727 0.1777
vn 0.7602 0.0000 0.6497
vn 0.9783 0.0000 0.2073
vn 0.1187 0.9877 0.1014
vn 0.5000 0.8595 0.1060
vn 0.0000 1.0000 0.0000
vn 0.0568 0.9983 -0.0148
vn -0.0262 0.9996 0.0068
vn -0.0098 0.9998 0.0197
vn -0.0190 0.9970 -0.0753
vn -0.0837 0.9949 -0.0555
usemtl None
s off
f 1/1/1 20/2/1 3/3/1
f 20/2/2 19/4/2 4/5/2
f 4/5/3 2/6/3 6/7/3
f 6/7/4 2/6/4 5/8/4
f 7/9/5 8/10/5 2/6/5
f 1/1/6 7/9/6 19/4/6
f 2/6/7 9/11/7 5/8/7
f 9/11/8 2/6/8 8/10/8
f 4/5/9 12/12/9 11/13/9 3/3/9 29/14/9
f 3/3/10 11/13/10 10/15/10 1/1/10
f 4/5/11 6/7/11 12/12/11
f 12/12/12 6/7/12 15/16/12
f 12/12/13 15/16/13 14/17/13 11/13/13
f 15/16/14 6/7/14 13/18/14
f 14/17/15 18/19/15 17/20/15 11/13/15
f 11/13/16 17/20/16 16/21/16 10/15/16
f 14/17/17 15/16/17 18/19/17
f 19/4/18 2/6/18 4/5/18
f 19/4/2 20/2/2 1/1/2
f 19/4/19 7/9/19 2/6/19
f 10/15/20 22/22/20 21/23/20 1/1/20
f 22/22/21 24/24/21 23/25/21 21/23/21
f 10/15/22 16/21/22 22/22/22
f 22/22/23 16/21/23 24/24/23
f 1/1/24 21/23/24 7/9/24
f 21/23/24 23/25/24 7/9/24
f 7/9/25 25/26/25 26/27/25 8/10/25
f 7/9/24 23/25/24 25/26/24
f 8/10/26 26/27/26 9/11/26
f 9/11/24 28/28/24 27/29/24 5/8/24
f 9/11/27 26/27/27 28/28/27
f 6/7/24 5/8/24 27/29/24
f 3/3/28 20/2/28 29/14/28
f 20/2/29 4/5/29 29/14/29
