# Blender v2.80 (sub 75) OBJ File: 'rift.blend'
# www.blender.org
mtllib rift.mtl
o Circle
v -0.000000 8.879169 0.000000
v -0.455179 8.798685 0.000000
v -0.892866 8.560329 0.000000
v -1.296240 8.173260 0.000000
v -1.649801 7.652351 0.000000
v -1.939960 7.017623 0.000000
v -2.155568 6.293467 -0.000000
v -2.288339 5.507711 -0.000000
v -2.333170 4.690553 -0.000000
v -2.288339 3.873395 -0.000000
v -2.155568 3.087639 -0.000000
v -1.939960 2.363483 -0.000000
v -1.649801 1.728754 -0.000000
v -1.296240 1.207846 -0.000000
v -0.892865 0.820776 -0.000000
v -0.455178 0.582420 -0.000000
v 0.000001 0.501937 -0.000000
v 0.455180 0.582420 -0.000000
v 0.892866 0.820777 -0.000000
v 1.296241 1.207847 -0.000000
v 1.649801 1.728756 -0.000000
v 1.939961 2.363485 -0.000000
v 2.155569 3.087642 -0.000000
v 2.288339 3.873398 -0.000000
v 2.333170 4.690557 -0.000000
v 2.288338 5.507715 -0.000000
v 2.155567 6.293471 -0.000000
v 1.939958 7.017627 0.000000
v 1.649798 7.652355 0.000000
v 1.296237 8.173263 0.000000
v 0.892862 8.560331 0.000000
v 0.455175 8.798687 0.000000
v -0.000000 8.633038 -0.100000
v -0.428432 8.557284 -0.100000
v -0.840399 8.332934 -0.100000
v -1.220070 7.968610 -0.100000
v -1.552855 7.478311 -0.100000
v -1.825965 6.880880 -0.100000
v -2.028903 6.199276 -0.100000
v -2.153872 5.459694 -0.100000
v -2.196069 4.690553 -0.100000
v -2.153872 3.921412 -0.100000
v -2.028903 3.181829 -0.100000
v -1.825965 2.500226 -0.100000
v -1.552855 1.902795 -0.100000
v -1.220070 1.412496 -0.100000
v -0.840399 1.048171 -0.100000
v -0.428431 0.823821 -0.100000
v 0.000001 0.748068 -0.100000
v 0.428433 0.823822 -0.100000
v 0.840400 1.048172 -0.100000
v 1.220071 1.412497 -0.100000
v 1.552856 1.902796 -0.100000
v 1.825965 2.500228 -0.100000
v 2.028904 3.181832 -0.100000
v 2.153872 3.921415 -0.100000
v 2.196069 4.690557 -0.100000
v 2.153871 5.459698 -0.100000
v 2.028902 6.199281 -0.100000
v 1.825963 6.880884 -0.100000
v 1.552853 7.478314 -0.100000
v 1.220068 7.968613 -0.100000
v 0.840396 8.332936 -0.100000
v 0.428428 8.557285 -0.100000
v -0.000000 8.638736 0.100000
v -0.429051 8.562873 0.100000
v -0.841614 8.338198 0.100000
v -1.221834 7.973347 0.100000
v -1.555099 7.482340 0.100000
v -1.828604 6.884046 0.100000
v -2.031835 6.201457 0.100000
v -2.156985 5.460805 0.100000
v -2.199243 4.690553 0.100000
v -2.156985 3.920301 0.100000
v -2.031835 3.179649 0.100000
v -1.828604 2.497060 0.100000
v -1.555099 1.898766 0.100000
v -1.221834 1.407758 0.100000
v -0.841613 1.042907 0.100000
v -0.429051 0.818233 0.100000
v 0.000001 0.742370 0.100000
v 0.429052 0.818233 0.100000
v 0.841614 1.042908 0.100000
v 1.221835 1.407760 0.100000
v 1.555100 1.898767 0.100000
v 1.828604 2.497062 0.100000
v 2.031836 3.179651 0.100000
v 2.156985 3.920304 0.100000
v 2.199243 4.690557 0.100000
v 2.156984 5.460809 0.100000
v 2.031834 6.201461 0.100000
v 1.828602 6.884050 0.100000
v 1.555097 7.482343 0.100000
v 1.221831 7.973350 0.100000
v 0.841611 8.338201 0.100000
v 0.429048 8.562874 0.100000
vn 0.4809 -0.2198 -0.8488
vn -0.5890 0.0323 -0.8075
vn 0.5359 -0.1596 -0.8291
vn -0.5890 -0.0323 -0.8075
vn 0.5715 -0.0966 -0.8149
vn -0.5715 -0.0966 -0.8149
vn 0.5890 -0.0323 -0.8075
vn -0.5359 -0.1596 -0.8291
vn 0.5890 0.0323 -0.8075
vn -0.4809 -0.2198 -0.8488
vn 0.5715 0.0966 -0.8149
vn -0.4053 -0.2751 -0.8718
vn 0.5359 0.1596 -0.8291
vn -0.3091 -0.3222 -0.8948
vn -0.0664 0.3756 -0.9244
vn 0.4809 0.2198 -0.8488
vn -0.1944 -0.3569 -0.9137
vn -0.1944 0.3570 -0.9137
vn 0.4053 0.2751 -0.8718
vn -0.0664 -0.3756 -0.9244
vn -0.3091 0.3222 -0.8948
vn 0.3091 0.3222 -0.8948
vn 0.0664 -0.3756 -0.9244
vn -0.4053 0.2751 -0.8718
vn 0.1944 0.3569 -0.9137
vn 0.1944 -0.3569 -0.9137
vn -0.4809 0.2198 -0.8488
vn 0.0664 0.3756 -0.9244
vn 0.3091 -0.3222 -0.8948
vn -0.5359 0.1596 -0.8291
vn 0.4053 -0.2751 -0.8718
vn -0.5715 0.0966 -0.8149
vn 0.4890 -0.2235 0.8431
vn -0.5980 0.0328 0.8008
vn 0.5445 -0.1621 0.8229
vn -0.5980 -0.0328 0.8008
vn 0.5804 -0.0981 0.8084
vn -0.5804 -0.0981 0.8084
vn 0.5980 -0.0328 0.8008
vn -0.5445 -0.1621 0.8229
vn 0.5980 0.0328 0.8008
vn -0.4890 -0.2235 0.8431
vn 0.5804 0.0981 0.8084
vn -0.4126 -0.2800 0.8668
vn 0.5445 0.1621 0.8229
vn -0.3150 -0.3282 0.8905
vn -0.0677 0.3831 0.9212
vn 0.4890 0.2235 0.8431
vn -0.1982 -0.3640 0.9101
vn -0.1982 0.3640 0.9101
vn 0.4126 0.2800 0.8668
vn -0.0677 -0.3831 0.9212
vn -0.3150 0.3282 0.8905
vn 0.3150 0.3282 0.8905
vn 0.0677 -0.3831 0.9212
vn -0.4126 0.2800 0.8668
vn 0.1982 0.3640 0.9101
vn 0.1982 -0.3640 0.9101
vn -0.4890 0.2235 0.8431
vn 0.0677 0.3831 0.9212
vn 0.3150 -0.3282 0.8905
vn -0.5445 0.1621 0.8229
vn 0.4126 -0.2800 0.8668
vn -0.5804 0.0981 0.8084
vn -0.1740 0.9843 0.0280
vn -0.4781 0.8779 0.0260
vn -0.6922 0.7213 0.0232
vn -0.8272 0.5615 0.0206
vn -0.9093 0.4157 0.0186
vn -0.9583 0.2853 0.0172
vn -0.9859 0.1666 0.0163
vn -0.9984 0.0548 0.0158
vn -0.9984 -0.0548 0.0158
vn -0.9859 -0.1666 0.0163
vn -0.9583 -0.2853 0.0172
vn -0.9093 -0.4157 0.0186
vn -0.8272 -0.5615 0.0206
vn -0.6922 -0.7213 0.0232
vn -0.4781 -0.8779 0.0260
vn -0.1740 -0.9843 0.0280
vn 0.1740 -0.9843 0.0280
vn 0.4781 -0.8779 0.0260
vn 0.6922 -0.7213 0.0232
vn 0.8272 -0.5615 0.0206
vn 0.9093 -0.4157 0.0186
vn 0.9583 -0.2853 0.0172
vn 0.9859 -0.1666 0.0163
vn 0.9984 -0.0548 0.0158
vn 0.9984 0.0548 0.0158
vn 0.9859 0.1666 0.0163
vn 0.9583 0.2853 0.0172
vn 0.9093 0.4157 0.0186
vn 0.8272 0.5615 0.0206
vn 0.6922 0.7213 0.0232
vn 0.1740 0.9843 0.0280
vn 0.4781 0.8779 0.0260
usemtl None
s off
f 22//1 21//1 53//1 54//1
f 9//2 8//2 40//2 41//2
f 23//3 22//3 54//3 55//3
f 10//4 9//4 41//4 42//4
f 24//5 23//5 55//5 56//5
f 11//6 10//6 42//6 43//6
f 25//7 24//7 56//7 57//7
f 12//8 11//8 43//8 44//8
f 26//9 25//9 57//9 58//9
f 13//10 12//10 44//10 45//10
f 27//11 26//11 58//11 59//11
f 14//12 13//12 45//12 46//12
f 28//13 27//13 59//13 60//13
f 15//14 14//14 46//14 47//14
f 2//15 1//15 33//15 34//15
f 29//16 28//16 60//16 61//16
f 16//17 15//17 47//17 48//17
f 3//18 2//18 34//18 35//18
f 30//19 29//19 61//19 62//19
f 17//20 16//20 48//20 49//20
f 4//21 3//21 35//21 36//21
f 31//22 30//22 62//22 63//22
f 18//23 17//23 49//23 50//23
f 5//24 4//24 36//24 37//24
f 32//25 31//25 63//25 64//25
f 19//26 18//26 50//26 51//26
f 6//27 5//27 37//27 38//27
f 1//28 32//28 64//28 33//28
f 20//29 19//29 51//29 52//29
f 7//30 6//30 38//30 39//30
f 21//31 20//31 52//31 53//31
f 8//32 7//32 39//32 40//32
f 21//33 22//33 86//33 85//33
f 8//34 9//34 73//34 72//34
f 22//35 23//35 87//35 86//35
f 9//36 10//36 74//36 73//36
f 23//37 24//37 88//37 87//37
f 10//38 11//38 75//38 74//38
f 24//39 25//39 89//39 88//39
f 11//40 12//40 76//40 75//40
f 25//41 26//41 90//41 89//41
f 12//42 13//42 77//42 76//42
f 26//43 27//43 91//43 90//43
f 13//44 14//44 78//44 77//44
f 27//45 28//45 92//45 91//45
f 14//46 15//46 79//46 78//46
f 1//47 2//47 66//47 65//47
f 28//48 29//48 93//48 92//48
f 15//49 16//49 80//49 79//49
f 2//50 3//50 67//50 66//50
f 29//51 30//51 94//51 93//51
f 16//52 17//52 81//52 80//52
f 3//53 4//53 68//53 67//53
f 30//54 31//54 95//54 94//54
f 17//55 18//55 82//55 81//55
f 4//56 5//56 69//56 68//56
f 31//57 32//57 96//57 95//57
f 18//58 19//58 83//58 82//58
f 5//59 6//59 70//59 69//59
f 32//60 1//60 65//60 96//60
f 19//61 20//61 84//61 83//61
f 6//62 7//62 71//62 70//62
f 20//63 21//63 85//63 84//63
f 7//64 8//64 72//64 71//64
f 49//65 81//65 82//65 50//65
f 50//66 82//66 83//66 51//66
f 51//67 83//67 84//67 52//67
f 52//68 84//68 85//68 53//68
f 53//69 85//69 86//69 54//69
f 54//70 86//70 87//70 55//70
f 55//71 87//71 88//71 56//71
f 56//72 88//72 89//72 57//72
f 57//73 89//73 90//73 58//73
f 58//74 90//74 91//74 59//74
f 59//75 91//75 92//75 60//75
f 60//76 92//76 93//76 61//76
f 61//77 93//77 94//77 62//77
f 62//78 94//78 95//78 63//78
f 63//79 95//79 96//79 64//79
f 64//80 96//80 65//80 33//80
f 33//81 65//81 66//81 34//81
f 34//82 66//82 67//82 35//82
f 35//83 67//83 68//83 36//83
f 36//84 68//84 69//84 37//84
f 37//85 69//85 70//85 38//85
f 38//86 70//86 71//86 39//86
f 39//87 71//87 72//87 40//87
f 40//88 72//88 73//88 41//88
f 41//89 73//89 74//89 42//89
f 42//90 74//90 75//90 43//90
f 43//91 75//91 76//91 44//91
f 44//92 76//92 77//92 45//92
f 45//93 77//93 78//93 46//93
f 46//94 78//94 79//94 47//94
f 48//95 80//95 81//95 49//95
f 47//96 79//96 80//96 48//96
o Cylinder
v 0.000000 -0.250000 -2.000000
v 0.000000 0.250000 -2.000000
v 1.414214 -0.250000 -1.414214
v 1.414214 0.250000 -1.414214
v 2.000000 -0.250000 0.000000
v 2.000000 0.250000 0.000000
v 1.414214 -0.250000 1.414214
v 1.414214 0.250000 1.414214
v -0.000000 -0.250000 2.000000
v -0.000000 0.250000 2.000000
v -1.414214 -0.250000 1.414213
v -1.414214 0.250000 1.414213
v -2.000000 -0.250000 -0.000000
v -2.000000 0.250000 -0.000000
v -1.414214 -0.250000 -1.414213
v -1.414214 0.250000 -1.414213
vn 0.3827 0.0000 -0.9239
vn 0.9239 0.0000 -0.3827
vn 0.9239 0.0000 0.3827
vn 0.3827 0.0000 0.9239
vn -0.3827 0.0000 0.9239
vn -0.9239 0.0000 0.3827
vn 0.0000 1.0000 -0.0000
vn -0.9239 0.0000 -0.3827
vn -0.3827 0.0000 -0.9239
vn 0.0000 -1.0000 0.0000
usemtl None
s off
f 97//97 98//97 100//97 99//97
f 99//98 100//98 102//98 101//98
f 101//99 102//99 104//99 103//99
f 103//100 104//100 106//100 105//100
f 105//101 106//101 108//101 107//101
f 107//102 108//102 110//102 109//102
f 100//103 98//103 112//103 110//103 108//103 106//103 104//103 102//103
f 109//104 110//104 112//104 111//104
f 111//105 112//105 98//105 97//105
f 97//106 99//106 101//106 103//106 105//106 107//106 109//106 111//106
