# Blender v2.80 (sub 75) OBJ File: 'facility.blend'
# www.blender.org
mtllib facility.mtl
o facility_frame_Cube
v 18.062134 18.062134 -18.062134
v 18.062134 -18.062134 -18.062134
v 18.062134 18.062134 18.062134
v 18.062134 -18.062134 18.062134
v -18.062134 18.062134 -18.062134
v -18.062134 -18.062134 -18.062134
v -18.062134 18.062134 18.062134
v -18.062134 -18.062134 18.062134
v 5.418640 18.062134 5.418640
v -5.418640 18.062134 5.418640
v 5.418640 18.062134 -5.418640
v -5.418640 18.062134 -5.418640
v -2.709320 23.062134 -2.709320
v 2.709320 23.062134 -2.709320
v -2.709320 23.062134 2.709320
v 2.709320 23.062134 2.709320
v 18.062134 12.041422 18.062134
v 18.062134 4.795996 18.062134
v 18.062134 -0.000001 18.062134
v 18.062134 -6.020712 18.062134
v 18.062134 -12.041423 18.062134
v 18.062134 12.041422 -18.062134
v 18.062134 4.795996 -18.062134
v 18.062134 -0.000001 -18.062134
v 18.062134 -6.020712 -18.062134
v 18.062134 -12.041423 -18.062134
v -18.062134 12.041422 -18.062134
v -18.062134 4.795996 -18.062134
v -18.062134 -0.000001 -18.062134
v -18.062134 -6.020712 -18.062134
v -18.062134 -12.041423 -18.062134
v -18.062134 -12.041422 18.062134
v -18.062134 -6.020710 18.062134
v -18.062134 0.000001 18.062134
v -18.062134 4.795997 18.062134
v -18.062134 12.041423 18.062134
v 18.062134 18.062134 -6.020711
v 18.062134 18.062134 6.020711
v 17.062134 18.062134 -6.020711
v 17.062134 18.062134 6.020711
v 14.062134 18.062134 -6.020711
v 14.062134 18.062134 6.020711
v -18.062134 18.062134 6.020711
v -18.062134 18.062134 -6.020711
v -17.062134 18.062134 6.020711
v -17.062134 18.062134 -6.020711
v -14.062134 18.062134 6.020711
v -14.062134 18.062134 -6.020711
v 1.264349 18.062134 5.418640
v -1.264349 18.062134 5.418640
v -1.264349 18.062134 -5.418640
v 1.264349 18.062134 -5.418640
v 1.264349 23.062134 2.709320
v -1.264349 23.062134 2.709320
v 1.264349 23.062134 -2.709320
v -1.264349 23.062134 -2.709320
v 1.264349 21.395468 -3.612427
v -1.264349 21.395468 -3.612427
v -1.264349 21.395468 3.612427
v 1.264349 21.395468 3.612427
v 18.062134 9.459361 -18.062134
v 18.062134 9.459361 18.062134
v -18.062134 9.459361 -18.062134
v -18.062134 9.459361 18.062134
v 5.418640 9.459361 5.418640
v -5.418640 9.459361 5.418640
v 5.418640 9.459361 -5.418640
v -5.418640 9.459361 -5.418640
v 18.062134 9.459361 -6.020711
v 18.062134 9.459361 6.020711
v 17.062134 9.459361 -6.020711
v 17.062134 9.459361 6.020711
v 14.062134 9.459361 -6.020711
v 14.062134 9.459361 6.020711
v -18.062134 9.459361 6.020711
v -18.062134 9.459361 -6.020711
v -17.062134 9.459361 6.020711
v -17.062134 9.459361 -6.020711
v -14.062134 9.459361 6.020711
v -14.062134 9.459361 -6.020711
v 1.264349 9.459361 5.418640
v -1.264349 9.459361 5.418640
v -1.264349 9.459361 -5.418640
v 1.264349 9.459361 -5.418640
v 1.264349 13.045040 1.806213
v 1.264349 13.045040 -1.806213
v -1.264349 13.045040 1.806213
v -1.264349 13.045040 -1.806213
v 5.418640 9.459361 -1.806213
v 5.418640 9.459361 1.806213
v -5.418640 9.459361 1.806213
v -5.418640 9.459361 -1.806213
v -5.418640 18.062134 1.806213
v -5.418640 18.062134 -1.806213
v 5.418640 18.062134 -1.806213
v 5.418640 18.062134 1.806213
v 14.062134 9.459361 17.062134
v -14.062134 9.459361 -14.062134
v 17.062134 9.459361 17.062134
v -17.062134 9.459361 -17.062134
v -14.062134 9.459361 -17.062134
v -17.062134 9.459361 -14.062134
v 17.062134 9.459361 -17.062134
v -17.062134 9.459361 17.062134
v 14.062134 9.459361 14.062134
v 17.062134 9.459361 14.062134
v -17.062134 9.459361 14.062134
v 17.062134 9.459361 -14.062134
v 18.062134 -2.912895 -18.062134
v 18.062134 -2.912895 18.062134
v -18.062134 -2.912895 -18.062134
v -18.062134 -2.912895 18.062134
v 5.418640 -2.912895 5.418640
v -5.418640 -2.912895 5.418640
v 5.418640 -2.912895 -5.418640
v -5.418640 -2.912895 -5.418640
v 18.062134 -2.912895 -6.020711
v 18.062134 -2.912895 6.020711
v 17.062134 -2.912895 -6.020711
v 17.062134 -2.912895 6.020711
v 14.062134 -2.912895 -6.020711
v 14.062134 -2.912895 6.020711
v -18.062134 -2.912895 6.020711
v -18.062134 -2.912895 -6.020711
v -17.062134 -2.912895 6.020711
v -17.062134 -2.912895 -6.020711
v -14.062134 -2.912895 6.020711
v -14.062134 -2.912895 -6.020711
v 1.264349 -2.912895 5.418640
v -1.264349 -2.912895 5.418640
v -1.264349 -2.912895 -5.418640
v 1.264349 -2.912895 -5.418640
v 5.418640 -2.912895 -1.806213
v 5.418640 -2.912895 1.806213
v -5.418640 -2.912895 1.806213
v -5.418640 -2.912895 -1.806213
v 14.062134 -2.912895 17.062134
v -14.062134 -2.912895 -14.062134
v 17.062134 -2.912895 17.062134
v -17.062134 -2.912895 -17.062134
v -14.062134 -2.912895 -17.062134
v -17.062134 -2.912895 -14.062134
v 17.062134 -2.912895 -17.062134
v -17.062134 -2.912895 17.062134
v 14.062134 -2.912895 14.062134
v 17.062134 -2.912895 14.062134
v -17.062134 -2.912895 14.062134
v 17.062134 -2.912895 -14.062134
v 14.062134 5.247324 17.062134
v -14.062134 5.247324 -14.062134
v 17.062134 5.247324 17.062134
v -17.062134 5.247324 -17.062134
v -14.062134 5.247324 -17.062134
v -17.062134 5.247324 -14.062134
v 14.062134 5.247324 14.062134
v 17.062134 5.247324 14.062134
v -6.281067 9.459361 -14.062134
v 1.500000 9.459361 -14.062134
v 9.281068 9.459361 -14.062134
v 9.281068 9.459361 -17.062134
v 1.500000 9.459361 -17.062134
v -6.281067 9.459361 -17.062134
v -9.281068 9.459361 14.062134
v -1.500000 9.459361 14.062134
v 6.281067 9.459361 14.062134
v -9.281068 9.459361 17.062134
v -1.500000 9.459361 17.062134
v 6.281067 9.459361 17.062134
v -14.062134 9.459361 14.062134
v 14.062134 9.459361 -14.062134
v -17.062134 18.062134 17.062134
v -14.062134 18.062134 14.062134
v 17.062134 18.062134 -17.062134
v 14.062134 18.062134 -14.062134
v -14.062134 18.062134 -14.062134
v -14.062134 18.062134 -17.062134
v 14.062134 18.062134 17.062134
v 14.062134 18.062134 14.062134
v -12.562134 9.459361 14.062134
v -12.562134 18.062134 14.062134
v 12.562134 9.459361 -14.062134
v 12.562134 18.062134 -14.062134
v -12.562134 18.062134 -17.062134
v 12.562134 18.062134 17.062134
v 12.562134 9.459361 17.062134
v -12.562134 9.459361 -17.062134
v 12.562134 9.459361 14.062134
v -12.562134 9.459361 -14.062134
vt 0.625000 0.666667
vt 0.000000 0.000000
vt 0.000000 0.000000
vt 0.000000 0.000000
vt 0.000000 0.000000
vt 0.000000 0.000000
vt 0.000000 0.000000
vt 0.000000 0.000000
vt 0.625000 0.500000
vt 0.000000 0.000000
vt 0.625000 0.583333
vt 0.625000 0.250000
vt 0.708333 0.416667
vt 0.791667 0.583333
vt 0.875000 0.750000
vt 0.875000 0.750000
vt 0.625000 0.250000
vt 0.875000 0.500000
vt 0.791667 0.500000
vt 0.708333 0.500000
vt 0.625000 0.500000
vt 0.625000 0.500000
vt 0.875000 0.500000
vt 0.875000 0.666667
vt 0.875000 0.583333
vt 0.625000 0.416667
vt 0.625000 0.333333
vt 0.000000 0.000000
vt 0.000000 0.000000
vt 0.375000 0.666667
vt 0.375000 0.583333
vt 0.375000 0.583333
vt 0.375000 0.583333
vt 0.375000 0.666667
vt 0.000000 0.000000
vt 0.000000 0.000000
vt 0.000000 0.000000
vt 0.625000 0.583333
vt 0.625000 0.666667
vt 0.000000 0.000000
vt 0.000000 0.000000
vt 0.000000 0.000000
vt 0.000000 0.000000
vt 0.000000 0.000000
vt 0.000000 0.000000
vt 0.000000 0.000000
vt 0.000000 0.000000
vt 0.000000 0.000000
vt 0.000000 0.000000
vt 0.000000 0.000000
vt 0.875000 0.583333
vt 0.875000 0.666667
vt 0.625000 0.416667
vt 0.625000 0.333333
vt 0.000000 0.000000
vt 0.000000 0.000000
vt 0.000000 0.000000
vt 0.000000 0.000000
vt 0.000000 0.000000
vt 0.000000 0.000000
vt 0.000000 0.000000
vt 0.000000 0.000000
vt 0.625000 0.250000
vt 0.000000 0.000000
vt 0.875000 0.750000
vt 0.791667 0.583333
vt 0.708333 0.416667
vt 0.875000 0.500000
vt 0.000000 0.000000
vt 0.000000 0.000000
vt 0.625000 0.500000
vt 0.708333 0.500000
vt 0.791667 0.500000
vt 0.000000 0.000000
vt 0.000000 0.000000
vt 0.000000 0.000000
vt 0.000000 0.000000
vt 0.000000 0.000000
vt 0.000000 0.000000
vt 0.000000 0.000000
vt 0.000000 0.000000
vt 0.000000 0.000000
vt 0.000000 0.000000
vt 0.000000 0.000000
vt 0.000000 0.000000
vt 0.000000 0.000000
vt 0.000000 0.000000
vt 0.000000 0.000000
vt 0.000000 0.000000
vt 0.000000 0.000000
vt 0.000000 0.000000
vt 0.000000 0.000000
vt 0.000000 0.000000
vt 0.000000 0.000000
vt 0.000000 0.000000
vt 0.000000 0.000000
vt 0.000000 0.000000
vt 0.000000 0.000000
vt 0.000000 0.000000
vt 0.000000 0.000000
vt 0.000000 0.000000
vt 0.000000 0.000000
vt 0.000000 0.000000
vt 0.000000 0.000000
vt 0.000000 0.000000
vt 0.000000 0.000000
vt 0.000000 0.000000
vt 0.000000 0.000000
vt 0.000000 0.000000
vt 0.000000 0.000000
vt 0.000000 0.000000
vt 0.000000 0.000000
vt 0.000000 0.000000
vt 0.000000 0.000000
vt 0.000000 0.000000
vt 0.000000 0.000000
vt 0.000000 0.000000
vt 0.000000 0.000000
vt 0.000000 0.000000
vt 0.000000 0.000000
vt 0.000000 0.000000
vt 0.000000 0.000000
vt 0.000000 0.000000
vt 0.000000 0.000000
vt 0.000000 0.000000
vt 0.000000 0.000000
vt 0.000000 0.000000
vt 0.000000 0.000000
vt 0.000000 0.000000
vt 0.000000 0.000000
vt 0.000000 0.000000
vt 0.000000 0.000000
vt 0.000000 0.000000
vt 0.000000 0.000000
vt 0.000000 0.000000
vt 0.000000 0.000000
vt 0.000000 0.000000
vt 0.000000 0.000000
vt 0.000000 0.000000
vt 0.000000 0.000000
vt 0.000000 0.000000
vt 0.000000 0.000000
vt 0.000000 0.000000
vt 0.000000 0.000000
vt 0.000000 0.000000
vt 0.000000 0.000000
vt 0.000000 0.000000
vt 0.000000 0.000000
vt 0.000000 0.000000
vt 0.000000 0.000000
vt 0.000000 0.000000
vt 0.000000 0.000000
vn 0.0000 1.0000 0.0000
vn -1.0000 0.0000 0.0000
vn 0.8792 0.4764 0.0000
vn -0.8792 0.4764 0.0000
vn 0.0000 0.8137 -0.5813
vn 0.0000 0.4764 0.8792
vn 0.0000 0.4764 -0.8792
vn 0.4760 0.8794 0.0000
vn -0.4760 0.8794 0.0000
vn 0.0000 0.8137 0.5813
vn 0.0000 0.5843 0.8115
vn 0.0000 0.5843 -0.8115
vn 0.6534 0.7570 0.0000
vn -0.6534 0.7570 0.0000
vn 1.0000 0.0000 0.0000
vn 0.0000 0.0000 -1.0000
vn 0.0000 0.0000 1.0000
vn 0.0584 0.0484 0.9971
vn 0.0000 0.1777 0.9841
vn 0.0000 0.1777 -0.9841
vn 0.0584 0.0484 -0.9971
vn -0.0584 0.0484 0.9971
vn -0.0584 0.0484 -0.9971
vn 0.0000 0.7019 0.7123
vn 0.0000 0.7019 -0.7123
vn 0.0000 -1.0000 0.0000
vn 0.7071 0.0000 -0.7071
vn 0.7341 0.0000 -0.6790
vn -0.7341 0.0000 0.6790
vn -0.7071 0.0000 0.7071
usemtl Material
s off
f 46/1/1 175/2/1 5/3/1
f 92/4/2 68/5/2 116/6/2 136/7/2
f 48/8/1 175/2/1 46/1/1
f 7/9/1 171/10/1 45/11/1
f 9/12/3 96/13/3 95/14/3 11/15/3 14/16/3 16/17/3
f 12/18/4 94/19/4 93/20/4 10/21/4 15/22/4 13/23/4
f 14/16/1 55/24/1 56/25/1 13/23/1 15/22/1 54/26/1 53/27/1 16/17/1
f 73/28/5 42/29/5 40/30/5 71/31/5
f 37/32/1 39/33/1 40/30/1 38/34/1
f 172/35/1 47/36/1 45/37/1 171/10/1
f 43/38/1 45/11/1 46/1/1 44/39/1
f 37/32/1 1/40/1 39/33/1
f 3/41/1 38/34/1 40/30/1
f 40/30/1 178/42/1 3/41/1
f 42/29/1 178/42/1 40/30/1
f 9/12/1 42/29/1 41/43/1 11/15/1 95/14/1 96/13/1
f 5/3/1 44/39/1 46/1/1
f 177/44/1 3/41/1 178/42/1
f 175/2/1 176/45/1 5/3/1
f 41/43/1 174/46/1 11/15/1
f 172/35/1 10/21/1 47/36/1
f 7/9/1 45/37/1 43/38/1
f 12/18/1 48/8/1 47/36/1 10/21/1 93/20/1 94/19/1
f 53/27/6 54/26/6 59/47/6 60/48/6
f 56/25/7 55/24/7 57/49/7 58/50/7
f 51/51/7 12/18/7 58/50/7
f 12/18/7 13/23/7 58/50/7
f 56/25/7 58/50/7 13/23/7
f 55/24/7 14/16/7 57/49/7
f 11/15/7 57/49/7 14/16/7
f 11/15/7 52/52/7 57/49/7
f 54/26/6 15/22/6 59/47/6
f 10/21/6 59/47/6 15/22/6
f 10/21/6 50/53/6 59/47/6
f 49/54/6 9/12/6 60/48/6
f 16/17/6 60/48/6 9/12/6
f 53/27/6 60/48/6 16/17/6
f 149/55/8 155/56/8 165/57/8 168/58/8
f 153/59/9 150/60/9 157/61/9 162/62/9
f 65/63/1 74/64/1 73/28/1 67/65/1 89/66/1 90/67/1
f 68/68/1 80/69/1 79/70/1 66/71/1 91/72/1 92/73/1
f 77/74/10 79/70/10 48/8/10 46/1/10
f 52/52/11 51/51/11 88/75/11 86/76/11
f 49/54/12 85/77/12 87/78/12 50/53/12
f 85/77/13 90/67/13 89/66/13 86/76/13
f 86/76/1 88/75/1 87/78/1 85/77/1
f 88/75/14 92/73/14 91/72/14 87/78/14
f 66/71/2 10/21/2 93/20/2 91/72/2
f 68/68/2 92/73/2 94/19/2 12/18/2
f 65/63/15 90/67/15 96/13/15 9/12/15
f 67/65/15 11/15/15 95/14/15 89/66/15
f 12/18/16 11/15/16 67/65/16 68/68/16
f 10/21/17 66/71/17 65/63/17 9/12/17
f 88/75/15 51/51/15 56/79/15
f 88/75/18 56/79/18 94/19/18 92/73/18
f 13/23/19 94/19/19 56/79/19
f 93/80/20 15/22/20 54/26/20
f 87/78/21 91/72/21 93/80/21 54/26/21
f 50/53/15 87/78/15 54/26/15
f 52/52/2 86/76/2 55/81/2
f 86/76/22 89/66/22 95/14/22 55/81/22
f 95/14/19 14/16/19 55/24/19
f 90/67/23 85/77/23 53/82/23 96/13/23
f 85/77/2 49/54/2 53/82/2
f 16/17/20 96/13/20 53/82/20
f 128/83/24 150/60/24 154/84/24 126/85/24
f 120/86/25 122/87/25 155/56/25 156/88/25
f 152/89/1 154/84/1 150/60/1 153/59/1
f 151/90/1 156/88/1 155/56/1 149/55/1
f 137/91/2 149/55/2 155/56/2 145/92/2
f 141/93/15 153/59/15 150/60/15 138/94/15
f 98/95/26 101/96/26 186/97/26 188/98/26
f 47/36/2 48/8/2 79/70/2
f 42/29/15 73/28/15 41/43/15
f 184/99/2 182/100/2 181/101/2 185/102/2
f 40/30/2 39/33/2 71/31/2
f 46/1/15 45/11/15 77/74/15
f 79/70/1 77/74/1 107/103/1 169/104/1
f 73/28/1 71/31/1 108/105/1 170/106/1
f 159/107/1 108/105/1 103/108/1 160/109/1
f 158/110/1 159/107/1 160/109/1 161/111/1
f 157/61/1 158/110/1 161/111/1 162/62/1
f 104/112/1 166/113/1 163/114/1 107/103/1
f 165/57/1 164/115/1 167/116/1 168/58/1
f 164/115/1 163/114/1 166/113/1 167/116/1
f 45/11/15 171/10/15 104/112/15 77/74/15
f 47/36/2 79/70/2 169/104/2 172/35/2
f 39/33/2 173/117/2 103/108/2 71/31/2
f 41/43/15 73/28/15 170/106/15 174/46/15
f 39/33/1 1/40/1 173/117/1
f 174/46/1 41/43/1 39/118/1 173/117/1
f 105/119/26 97/120/26 185/102/26 187/121/26
f 105/119/26 106/122/26 99/123/26 97/120/26
f 173/117/17 183/124/17 186/97/17 103/108/17
f 171/10/16 184/99/16 185/102/16 104/112/16
f 48/8/1 12/18/1 175/2/1
f 42/29/1 9/12/1 178/42/1
f 9/125/1 10/126/1 7/127/1 177/44/1 178/42/1
f 7/127/1 3/41/1 177/44/1
f 11/128/1 1/40/1 176/45/1 175/2/1 12/129/1
f 1/40/1 5/3/1 176/45/1
f 157/61/16 150/60/16 98/95/16
f 105/119/17 165/57/17 155/56/17
f 105/119/27 145/92/27 113/130/27 65/131/27
f 90/132/15 65/131/15 113/130/15 134/133/15
f 90/132/28 134/133/28 131/134/28 83/135/28
f 83/135/16 131/134/16 116/6/16 68/5/16
f 92/4/29 136/7/29 129/136/29 81/137/29
f 65/131/17 81/137/17 129/136/17 113/130/17
f 92/4/1 66/138/1 81/137/1
f 90/132/1 67/139/1 83/135/1
f 68/5/30 98/95/30 138/94/30 116/6/30
f 155/56/2 122/87/2 145/92/2
f 128/83/15 138/94/15 150/60/15
f 68/5/1 98/95/1 80/69/1
f 65/131/1 105/119/1 74/64/1
f 121/140/1 122/87/1 120/86/1 119/141/1
f 127/142/1 128/83/1 126/85/1 125/143/1
f 115/144/1 131/134/1 134/133/1
f 114/145/1 129/136/1 136/7/1
f 174/46/16 170/106/16 181/101/16 182/100/16
f 172/35/17 169/104/17 179/146/17 180/147/17
f 183/124/15 180/147/15 179/146/15 186/97/15
f 98/95/26 102/148/26 100/149/26 101/96/26
f 106/122/26 105/119/26 74/64/26 72/150/26
f 65/131/1 79/70/1 169/104/1 105/119/1
f 68/5/1 73/28/1 170/106/1 98/95/1
f 71/151/26 72/150/26 74/64/26 73/28/26
f 168/58/16 97/120/16 149/55/16
f 99/123/16 151/90/16 149/55/16 97/120/16
f 106/122/2 156/88/2 151/90/2 99/123/2
f 106/122/2 72/150/2 156/88/2
f 156/88/2 72/150/2 120/86/2
f 101/96/17 153/59/17 162/62/17
f 100/149/17 152/89/17 153/59/17 101/96/17
f 102/148/15 154/84/15 152/89/15 100/149/15
f 102/148/15 78/152/15 154/84/15
f 154/84/15 78/152/15 126/85/15
f 68/5/1 67/65/1 73/28/1
f 65/131/1 66/71/1 79/70/1
f 128/83/2 80/69/2 150/60/2
f 98/95/2 150/60/2 80/69/2
f 74/64/15 105/119/15 155/56/15
f 155/56/15 122/87/15 74/64/15
l 6 8
l 2 6
l 26 2
l 36 7
l 21 4
l 31 6
l 8 4
l 4 2
l 5 12
l 3 9
l 3 17
l 17 18
l 18 19
l 19 20
l 20 21
l 1 22
l 22 23
l 23 24
l 24 25
l 25 26
l 5 27
l 27 28
l 28 29
l 29 30
l 30 31
l 8 32
l 32 33
l 33 34
l 34 35
l 35 36
l 62 64
l 70 62
l 76 63
l 63 61
l 82 66
l 84 67
l 61 69
l 69 70
l 70 72
l 71 69
l 64 75
l 75 76
l 76 78
l 77 75
l 80 78
l 82 81
l 84 83
l 63 100
l 64 104
l 62 99
l 61 103
l 110 112
l 118 110
l 124 111
l 111 109
l 130 114
l 132 115
l 144 137
l 120 146
l 126 142
l 116 115
l 114 113
l 109 117
l 117 118
l 118 120
l 119 117
l 112 123
l 123 124
l 124 126
l 125 123
l 115 121
l 122 113
l 128 116
l 114 127
l 130 129
l 132 131
l 115 133
l 133 134
l 114 135
l 135 136
l 143 141
l 146 145
l 142 138
l 141 140
l 111 140
l 138 148
l 148 143
l 140 142
l 137 139
l 112 144
l 147 144
l 145 147
l 139 146
l 110 139
l 109 143
l 139 151
l 156 146
l 142 154
l 140 152
l 48 80
l 42 74
l 98 175
l 176 101
l 97 177
l 105 178
l 176 183
l 177 184
