# Blender v2.80 (sub 75) OBJ File: 'bullet.blend'
# www.blender.org
mtllib bullet.mtl
o Cube
v -0.389975 0.389975 -1.095824
v 0.389975 -0.389975 1.000000
v -0.389975 -0.389975 1.000000
v 0.389975 0.389975 -1.095823
v -0.389975 -0.389975 -1.095824
v 0.389975 0.389975 1.000001
v -0.389975 0.389975 1.000000
v 0.389975 -0.389975 -1.095824
v -0.000000 -0.000000 2.069453
v -0.000000 -0.539237 1.046368
v 0.539237 -0.000000 1.046368
v -0.539237 0.000000 1.046368
v -0.000000 0.539237 1.046368
v -0.000000 -0.539237 -1.049455
v 0.539237 -0.000000 -1.049455
v -0.539237 0.000000 -1.049456
v -0.000000 0.539237 -1.049455
vn -0.9339 0.3575 0.0000
vn -0.3575 0.9339 0.0000
vn 0.9339 0.3575 0.0000
vn 0.3666 0.8231 0.4338
vn 0.3575 0.9339 0.0000
vn 0.9339 -0.3575 0.0000
vn 0.8231 0.3666 0.4338
vn 0.8231 -0.3666 0.4338
vn 0.3666 -0.8231 0.4338
vn -0.3666 0.8231 0.4338
vn -0.8231 0.3666 0.4338
vn -0.8231 -0.3666 0.4338
vn -0.3666 -0.8231 0.4338
vn -0.9339 -0.3575 0.0000
vn 0.3575 -0.9339 0.0000
vn -0.3575 -0.9339 0.0000
vn 0.0000 0.0000 -1.0000
usemtl Material
s off
f 12//1 7//1 1//1 16//1
f 7//2 13//2 17//2 1//2
f 6//3 11//3 15//3 4//3
f 6//4 13//4 9//4
f 13//5 6//5 4//5 17//5
f 11//6 2//6 8//6 15//6
f 11//7 6//7 9//7
f 2//8 11//8 9//8
f 2//9 9//9 10//9
f 13//10 7//10 9//10
f 12//11 9//11 7//11
f 9//12 12//12 3//12
f 10//13 9//13 3//13
f 3//14 12//14 16//14 5//14
f 2//15 10//15 14//15 8//15
f 10//16 3//16 5//16 14//16
f 17//17 4//17 15//17 8//17 14//17 5//17 16//17 1//17
