# Blender v2.80 (sub 75) OBJ File: 'gun.blend'
# www.blender.org
mtllib gun.mtl
o Cube
v -0.500000 -2.196988 -1.151125
v -0.500000 -2.196988 0.326949
v 0.500000 -2.196988 0.326950
v 0.500000 -2.196988 -1.151124
v 0.500000 1.000000 -0.478074
v 0.500000 1.000000 1.000001
v -0.500000 1.000000 1.000000
v -0.500000 1.000000 -0.478075
v 0.500000 3.458275 -0.478074
v 0.500000 3.458275 1.000001
v -0.500000 3.458275 1.000000
v -0.500000 3.458275 -0.478075
v -0.500000 3.458275 8.197898
v 0.500000 3.458275 8.197899
v -0.500000 1.000000 8.197898
v 0.500000 1.000000 8.197899
vn 1.0000 -0.0000 0.0000
vn -1.0000 0.0000 -0.0000
vn 0.0000 -1.0000 -0.0000
vn -0.0000 -0.2060 0.9785
vn 0.0000 1.0000 0.0000
vn -0.0000 0.0000 1.0000
usemtl Material
s off
f 5//1 6//1 3//1 4//1
f 8//2 7//2 11//2 12//2
f 2//3 1//3 4//3 3//3
f 5//4 8//4 1//4 4//4
f 7//2 8//2 1//2 2//2
f 6//4 7//4 2//4 3//4
f 9//5 12//5 11//5 10//5
f 7//3 6//3 16//3 15//3
f 6//1 5//1 9//1 10//1
f 10//5 11//5 13//5 14//5
f 6//1 10//1 14//1 16//1
f 14//6 13//6 15//6 16//6
f 8//6 5//6 9//6 12//6
f 11//2 7//2 15//2 13//2
